<?xml version="1.0" encoding="UTF-8"?>
<svg version="1.1" xmlns="http://www.w3.org/2000/svg" width="18" height="18">
<path d="M0 0 C1.0725 0.00515625 2.145 0.0103125 3.25 0.015625 C4.85875 0.00789063 4.85875 0.00789063 6.5 0 C9.25 0.265625 9.25 0.265625 11.25 2.265625 C11.515625 5.015625 11.515625 5.015625 11.5 8.265625 C11.50515625 9.338125 11.5103125 10.410625 11.515625 11.515625 C11.25 14.265625 11.25 14.265625 9.25 16.265625 C6.625 16.390625 6.625 16.390625 4.25 16.265625 C4.26160156 15.48316406 4.27320313 14.70070313 4.28515625 13.89453125 C4.29417969 12.88261719 4.30320312 11.87070313 4.3125 10.828125 C4.32410156 9.81878906 4.33570313 8.80945313 4.34765625 7.76953125 C4.53612676 5.32541433 4.53612676 5.32541433 3.25 4.265625 C3.25 8.225625 3.25 12.185625 3.25 16.265625 C1.27 16.265625 -0.71 16.265625 -2.75 16.265625 C-4.75 14.265625 -4.75 14.265625 -5.015625 11.515625 C-5.01046875 10.443125 -5.0053125 9.370625 -5 8.265625 C-5.00515625 7.193125 -5.0103125 6.120625 -5.015625 5.015625 C-4.64793525 1.20895466 -3.80667034 0.36768975 0 0 Z " fill="#FFFFFF" transform="translate(5.75,0.734375)"/>
</svg>
