<svg width="18" height="18" viewBox="0 0 18 18" fill="none" xmlns="http://www.w3.org/2000/svg">
<path d="M16.5 12.1426C16.5 14.8727 14.8724 16.5002 12.1424 16.5002H11.2499C10.8374 16.5002 10.4999 16.1627 10.4999 15.7502V11.4226C10.4999 11.2201 10.6649 11.0476 10.8674 11.0476L12.1874 11.0251C12.2924 11.0176 12.3824 10.9426 12.4049 10.8376L12.6674 9.40511C12.6899 9.27011 12.5849 9.14261 12.4424 9.14261L10.8449 9.1651C10.6349 9.1651 10.4699 9.00011 10.4624 8.79761L10.4324 6.96007C10.4324 6.84007 10.5299 6.73508 10.6574 6.73508L12.4574 6.70507C12.5849 6.70507 12.6824 6.60758 12.6824 6.48008L12.6524 4.68004C12.6524 4.55253 12.5549 4.45504 12.4274 4.45504L10.4024 4.48505C9.15736 4.50755 8.16736 5.52755 8.18986 6.77257L8.22735 8.8351C8.23485 9.0451 8.06985 9.21011 7.85985 9.21761L6.95983 9.2326C6.83233 9.2326 6.73484 9.3301 6.73484 9.4576L6.75733 10.8826C6.75733 11.0101 6.85483 11.1076 6.98233 11.1076L7.88235 11.0926C8.09235 11.0926 8.25734 11.2576 8.26484 11.4601L8.33234 15.7352C8.33984 16.1552 8.00233 16.5002 7.58233 16.5002H5.85731C3.12728 16.5002 1.49976 14.8727 1.49976 12.1351V5.85756C1.49976 3.12752 3.12728 1.5 5.85731 1.5H12.1424C14.8724 1.5 16.5 3.12752 16.5 5.85756V12.1426Z" fill="white"/>
</svg>