<?xml version="1.0" encoding="UTF-8"?>
<svg version="1.1" xmlns="http://www.w3.org/2000/svg" width="16" height="14">
<path d="M0 0 C5.625 -0.25 5.625 -0.25 9 2 C9.66 1.34 10.32 0.68 11 0 C13.125 0.375 13.125 0.375 15 1 C14.195625 1.8353125 14.195625 1.8353125 13.375 2.6875 C12.92125 3.450625 12.4675 4.21375 12 5 C12.61141128 7.57114212 12.61141128 7.57114212 14 10 C14.556875 11.1446875 14.556875 11.1446875 15.125 12.3125 C15.41375 12.869375 15.7025 13.42625 16 14 C12.05272412 14.17942163 9.4019487 14.09350689 6 12 C5.34 12.66 4.68 13.32 4 14 C1.875 13.625 1.875 13.625 0 13 C1.32 11.35 2.64 9.7 4 8 C2.68 5.36 1.36 2.72 0 0 Z " fill="#FFFFFF" transform="translate(0,0)"/>
</svg>
